<svg width="337" height="304" viewBox="0 0 337 304" fill="none" xmlns="http://www.w3.org/2000/svg">
<g clip-path="url(#clip0_20_517)">
<path d="M1.1756 249.836C4.10875 248.4 5.35396 244.589 8.53614 243.595C11.8013 242.574 15.4263 244.589 18.4148 242.38C19.7153 241.414 20.6838 239.812 22.261 239.232C23.6446 238.735 25.0835 239.287 26.4117 239.702C27.5462 240.061 28.6808 240.392 29.8153 240.751C34.381 242.159 38.9191 243.54 43.4849 244.948C48.6594 246.522 53.8062 248.124 58.9807 249.698C59.4788 249.864 59.7002 249.063 59.2021 248.897C49.7385 245.998 40.3027 243.098 30.8391 240.199C28.6254 239.536 26.3287 238.514 24.032 238.238C22.4271 238.045 21.1542 238.68 20.0197 239.729C18.4424 241.193 17.2526 242.546 14.9559 242.656C13.0465 242.767 11.1649 242.27 9.25559 242.574C5.32628 243.181 4.10875 247.461 0.788204 249.091C0.290122 249.367 0.705193 250.085 1.1756 249.836Z" fill="#E8E8E8"/>
<path d="M50.9007 246.357C52.8654 246.854 54.415 244.893 56.1859 244.313C58.5656 243.512 61.1114 243.844 63.2697 245.086C63.7402 245.363 64.1552 244.645 63.6848 244.368C61.8585 243.291 59.7832 242.85 57.6802 243.126C56.767 243.236 55.9092 243.485 55.0791 243.844C53.8892 244.368 52.5057 245.887 51.1221 245.556C50.5963 245.418 50.375 246.219 50.9007 246.357Z" fill="#E8E8E8"/>
<path d="M72.2352 244.286C70.3813 242.767 68.6103 241.137 66.95 239.398C66.1752 238.597 65.4281 237.741 64.7087 236.885C64.2936 236.388 63.8785 235.891 63.4911 235.394C63.2144 235.035 62.9377 234.676 62.6887 234.317C62.2459 233.875 62.2459 233.323 62.7163 232.715C63.0484 232.853 63.5741 232.522 63.2974 232.135C61.6095 229.871 60.3643 227.386 59.5618 224.679C59.3958 224.845 59.2298 225.011 59.0637 225.176C59.9769 225.425 60.641 225.894 61.1391 226.668C61.4158 227.109 62.1352 226.723 61.8585 226.253C57.7355 219.129 54.3596 211.618 51.8139 203.803C51.5925 203.941 51.3435 204.079 51.1221 204.217C62.7163 215.594 67.9739 231.417 77.7418 244.147C78.0738 244.562 78.7933 244.147 78.4612 243.733C68.6656 230.948 63.3528 215.07 51.7032 203.637C51.4265 203.361 50.8731 203.637 51.0114 204.051C53.5848 211.949 56.9607 219.515 61.1391 226.695C61.3881 226.557 61.6095 226.419 61.8585 226.281C61.2221 225.314 60.392 224.679 59.2851 224.403C58.9807 224.32 58.6763 224.597 58.787 224.9C59.6172 227.662 60.89 230.23 62.6056 232.549C62.7993 232.356 62.993 232.163 63.1867 231.97C62.412 231.611 61.5541 231.97 61.3604 232.881C61.1114 234.179 62.6887 235.615 63.4081 236.526C65.8708 239.591 68.6656 242.38 71.7095 244.865C72.0692 245.197 72.6503 244.617 72.2352 244.286Z" fill="#E8E8E8"/>
<path d="M69.3297 227.027C64.2382 219.433 60.1152 211.286 57.0714 202.671C56.9884 202.836 56.8777 203.002 56.7947 203.168C57.7355 202.947 58.538 203.306 59.0637 204.134C59.3404 204.604 60.0045 204.189 59.7832 203.72C55.4941 194.469 51.1221 184.832 51.4265 174.421C51.1774 174.504 50.9007 174.559 50.6517 174.642C58.0399 189.83 65.0684 205.211 71.7095 220.731C71.9032 221.172 72.6226 220.841 72.4566 220.399C71.3497 217.085 70.2706 213.744 69.1637 210.43C68.638 208.801 68.0845 207.199 67.5588 205.57C67.1991 204.493 66.4243 202.146 67.9739 201.566C67.8078 201.511 67.6695 201.428 67.5034 201.373C69.4958 205.266 71.4604 209.16 73.4527 213.054C73.7018 213.523 74.4213 213.109 74.1722 212.639C72.0139 208.414 71.0177 203.748 71.2114 198.998C70.9347 199.026 70.658 199.081 70.4089 199.108C76.1645 213.385 82.8333 227.303 90.3322 240.751C90.5812 241.22 91.3007 240.806 91.0516 240.337C83.5804 226.944 76.9393 213.109 71.2114 198.888C71.0454 198.473 70.4089 198.501 70.4089 198.998C70.2152 203.886 71.2667 208.663 73.4804 213.054C73.7295 212.916 73.9508 212.778 74.1999 212.639C72.2075 208.746 70.2429 204.852 68.2506 200.959C68.1676 200.821 67.9462 200.71 67.7802 200.765C65.013 201.787 66.784 205.736 67.3928 207.586C68.8317 211.922 70.2429 216.285 71.6818 220.62C71.9308 220.51 72.1799 220.399 72.4289 220.289C65.7878 204.769 58.7593 189.388 51.3711 174.2C51.1774 173.814 50.5963 174.035 50.5963 174.421C50.2643 184.97 54.7193 194.773 59.0637 204.134C59.3128 203.996 59.5341 203.858 59.7832 203.72C59.0637 202.588 57.9015 202.091 56.5733 202.367C56.3519 202.422 56.2136 202.671 56.2966 202.864C59.3681 211.535 63.5188 219.764 68.638 227.413C68.9147 227.883 69.6341 227.468 69.3297 227.027Z" fill="#E8E8E8"/>
<path d="M14.6515 280.405C24.2257 275.794 34.3257 271.099 45.2558 272.204C50.4303 272.728 55.4388 274.22 60.5856 274.882C63.1867 275.214 65.8155 275.352 68.4166 275.048C70.8517 274.744 73.1484 273.861 75.5281 273.336C78.5996 272.646 81.3944 273.364 84.3552 274.192C86.7903 274.855 89.1976 275.407 91.7157 274.827C92.2415 274.717 92.0201 273.916 91.4944 274.026C86.4582 275.214 81.7264 271.596 76.6349 272.314C74.1168 272.673 71.7648 273.667 69.2744 274.109C66.6456 274.551 63.9615 274.496 61.3051 274.164C56.0752 273.557 50.9837 272.01 45.7262 271.431C40.5517 270.851 35.4325 271.513 30.4794 272.949C24.8345 274.606 19.4939 277.147 14.2364 279.687C13.7383 279.908 14.181 280.626 14.6515 280.405Z" fill="#E8E8E8"/>
<path d="M70.824 303.297C74.0615 301.917 77.2437 300.398 80.3152 298.686C81.9201 297.775 83.4974 296.836 85.0747 295.842C86.4859 294.93 87.8971 293.632 89.4467 292.97C91.19 292.252 93.8188 293.605 95.5621 294.129C97.416 294.709 99.27 295.262 101.096 295.842C104.887 297.001 108.678 298.161 112.441 299.321C112.94 299.487 113.161 298.686 112.663 298.52C108.623 297.278 104.555 296.035 100.515 294.792C98.5782 294.185 96.6412 293.605 94.7042 292.997C93.21 292.528 91.3284 291.561 89.7511 291.948C88.2845 292.307 86.9563 293.577 85.7111 294.406C84.1062 295.455 82.4459 296.477 80.7856 297.443C77.4374 299.349 73.9785 301.061 70.4089 302.552C69.9108 302.773 70.3536 303.491 70.824 303.297Z" fill="#E8E8E8"/>
<path d="M105.247 304.154C107.35 303.104 109.453 302.027 111.556 300.978C113.493 299.984 115.568 298.658 117.782 298.465C120.023 298.244 121.767 299.708 123.704 300.564C125.336 301.282 127.107 301.696 128.878 301.806C133.029 302.027 136.903 299.956 141.026 300.177C144.319 300.37 147.639 303.077 150.877 301.365C151.347 301.116 150.932 300.398 150.462 300.647C148.442 301.724 146.256 300.674 144.263 300.039C142.548 299.487 140.887 299.238 139.089 299.432C134.827 299.873 130.926 301.668 126.554 300.647C122.929 299.818 120.162 296.808 116.26 297.94C114.461 298.465 112.774 299.459 111.113 300.288C109.01 301.337 106.907 302.414 104.804 303.463C104.361 303.684 104.777 304.402 105.247 304.154Z" fill="#E8E8E8"/>
<path d="M121.407 298.161C119.691 296.67 118.142 295.013 116.869 293.108C116.288 292.252 115.762 291.341 115.264 290.429C115.015 289.96 114.794 289.49 114.6 289.021C114.434 288.634 114.268 288.275 114.129 287.889C113.88 287.475 113.991 287.088 114.461 286.729C114.711 286.618 114.96 286.508 115.209 286.398C112.165 281.924 110.255 276.843 109.619 271.486C109.37 271.596 109.149 271.679 108.9 271.79C109.398 272.425 109.896 273.06 110.421 273.723C110.726 274.109 111.307 273.612 111.086 273.225C106.271 264.637 103.697 254.972 103.642 245.142C103.393 245.252 103.172 245.335 102.923 245.445C104.804 246.964 106.243 248.842 107.129 251.079C107.378 250.968 107.627 250.858 107.876 250.747C105.717 246.191 105.275 241.055 106.548 236.195C106.271 236.195 106.022 236.195 105.745 236.195C111.418 252.404 117.063 268.586 122.735 284.796C122.901 285.293 123.704 285.072 123.538 284.575C120.687 276.263 119.276 267.537 119.359 258.728C119.11 258.838 118.889 258.921 118.64 259.032C120.328 260.55 121.379 262.456 121.767 264.693C121.85 265.162 122.597 265.052 122.569 264.582C122.486 262.898 122.375 261.186 122.292 259.501C122.071 259.612 121.877 259.75 121.656 259.86C123.123 260.799 123.399 263.284 123.87 264.831C124.368 266.488 124.866 268.144 125.392 269.829C126.415 273.253 127.467 276.65 128.491 280.074C130.566 286.895 132.641 293.743 134.717 300.564C134.883 301.061 135.685 300.867 135.519 300.343C133.278 292.997 131.064 285.624 128.823 278.279C127.744 274.689 126.637 271.099 125.558 267.509C125.004 265.659 124.451 263.837 123.897 261.986C123.538 260.854 123.123 259.833 122.099 259.17C121.85 259.004 121.462 259.225 121.462 259.529C121.545 261.213 121.656 262.925 121.739 264.61C122.016 264.582 122.292 264.527 122.541 264.499C122.154 262.125 120.992 260.053 119.193 258.452C118.917 258.203 118.501 258.369 118.474 258.756C118.391 267.62 119.802 276.429 122.68 284.824C122.957 284.741 123.206 284.685 123.482 284.603C117.81 268.393 112.165 252.211 106.492 236.001C106.354 235.642 105.8 235.587 105.69 236.001C104.361 241.11 104.86 246.44 107.101 251.189C107.295 251.603 108.042 251.3 107.848 250.858C106.907 248.483 105.441 246.467 103.421 244.866C103.144 244.645 102.701 244.783 102.701 245.169C102.757 255.138 105.358 264.969 110.255 273.667C110.477 273.502 110.698 273.336 110.92 273.17C110.421 272.535 109.923 271.9 109.398 271.237C109.176 270.961 108.651 271.182 108.678 271.541C109.315 277.064 111.252 282.283 114.378 286.867C114.655 287.254 115.209 287.005 115.126 286.536C114.987 285.762 114.074 285.486 113.438 285.956C112.275 286.784 113.41 288.745 113.825 289.684C115.402 293.191 117.754 296.256 120.66 298.769C121.241 299.073 121.822 298.493 121.407 298.161Z" fill="#E8E8E8"/>
<path d="M92.4628 236.222C92.1031 231.031 101.539 234.013 104.168 234.51C108.484 235.311 112.773 236.112 117.09 236.913C125.696 238.514 134.329 240.116 142.935 241.718C143.461 241.828 143.682 241.027 143.156 240.917C133.278 239.067 123.427 237.244 113.548 235.394C108.706 234.483 103.863 233.571 99.0209 232.688C97.2776 232.356 95.2576 231.997 93.625 232.909C92.3798 233.571 91.5497 234.786 91.6604 236.222C91.6604 236.747 92.5182 236.747 92.4628 236.222Z" fill="#E8E8E8"/>
<path d="M137.207 240.806C140.085 241.11 141.856 238.376 144.097 237.051C146.007 235.946 147.667 236.802 149.632 237.189C151.818 237.631 154.059 237.686 156.273 237.41C156.798 237.354 156.798 236.526 156.273 236.581C153.782 236.885 151.292 236.775 148.857 236.167C147.39 235.78 146.062 235.311 144.595 235.891C141.994 236.885 140.223 240.309 137.207 239.978C136.681 239.923 136.681 240.751 137.207 240.806Z" fill="#E8E8E8"/>
<path d="M189.976 293.909C196.617 291.589 203.314 289.269 210.176 287.613C217.343 285.9 224.565 285.21 231.926 285.431C239.203 285.652 246.425 286.48 253.675 287.143C260.953 287.833 268.23 288.496 275.508 289.187C283.865 289.96 292.249 290.733 300.606 291.534C301.131 291.589 301.131 290.761 300.606 290.705C285.691 289.325 270.776 287.944 255.834 286.536C241.472 285.21 227.028 283.249 212.722 286.204C204.863 287.833 197.281 290.484 189.727 293.108C189.257 293.273 189.478 294.074 189.976 293.909Z" fill="#E8E8E8"/>
<path d="M219.225 266.736C224.178 265.687 228.826 263.616 233.503 261.738C238.511 259.75 243.575 258.369 248.943 257.9C254.367 257.43 259.818 257.706 265.214 258.038C270.638 258.369 276.061 258.756 281.512 259.142C287.849 259.612 294.214 260.136 300.55 260.689C301.076 260.744 301.076 259.915 300.55 259.86C289.316 258.866 278.081 258.01 266.819 257.292C256.11 256.602 245.568 256.326 235.357 260.109C229.933 262.125 224.676 264.693 218.976 265.908C218.505 266.046 218.699 266.847 219.225 266.736Z" fill="#E8E8E8"/>
<path d="M283.007 234.897C286.964 231.887 291.142 228.932 295.569 226.668C297.728 225.563 300.052 224.679 302.487 224.486C305.116 224.265 307.745 224.79 310.318 225.121C315.548 225.756 320.806 226.143 326.063 226.474C329.55 226.695 333.977 227.192 336.44 224.155C336.772 223.74 336.191 223.161 335.859 223.575C333.064 227.027 327.17 225.729 323.351 225.48C318.094 225.121 312.892 224.624 307.662 223.961C305.42 223.685 303.207 223.464 300.965 223.879C298.752 224.265 296.676 225.149 294.712 226.198C290.45 228.463 286.41 231.279 282.564 234.206C282.177 234.51 282.592 235.228 283.007 234.897Z" fill="#E8E8E8"/>
<path d="M130.677 230.34C134.606 227.386 138.563 224.458 142.492 221.504C146.256 218.687 149.77 215.732 154.695 215.484C159.344 215.263 164.104 215.788 168.725 216.174C173.706 216.588 178.659 217.141 183.584 217.831C187.735 218.411 192.688 219.957 196.617 217.803C197.088 217.555 196.673 216.837 196.202 217.085C194.182 218.19 191.941 218.19 189.7 217.914C187.292 217.61 184.885 217.196 182.477 216.864C177.829 216.229 173.152 215.705 168.448 215.318C163.827 214.931 159.04 214.379 154.419 214.655C150.13 214.904 146.947 217.113 143.599 219.626C139.144 222.94 134.717 226.281 130.262 229.595C129.847 229.954 130.262 230.672 130.677 230.34Z" fill="#E8E8E8"/>
<path d="M286.355 259.529C286.604 257.706 286.964 255.939 287.49 254.172C287.739 253.343 287.988 252.515 288.32 251.686C288.513 251.189 289.039 250.361 289.759 250.554C290.118 250.665 290.284 251.907 290.312 252.156C290.367 252.598 290.976 252.736 291.114 252.266C292.415 248.041 293.909 243.402 297.894 240.944C297.673 240.834 297.479 240.696 297.257 240.585C297.257 241.276 297.23 241.994 297.23 242.684C297.23 243.071 297.811 243.264 298.005 242.905C300.467 237.796 303.151 232.439 308.132 229.346C307.939 229.181 307.717 229.042 307.523 228.877C305.033 235.311 302.128 241.579 298.835 247.655C298.613 248.041 299.167 248.538 299.499 248.152C301.353 245.942 303.234 243.733 305.669 242.132C305.476 241.938 305.282 241.745 305.088 241.552C302.017 248.014 298.669 254.31 294.988 260.44C294.712 260.909 295.431 261.324 295.708 260.854C299.36 254.724 302.736 248.428 305.808 241.966C305.974 241.635 305.614 241.138 305.227 241.386C302.736 243.043 300.799 245.28 298.89 247.544C299.111 247.71 299.333 247.875 299.554 248.041C302.875 241.911 305.808 235.587 308.326 229.07C308.464 228.739 307.994 228.435 307.717 228.601C302.598 231.776 299.831 237.216 297.285 242.463C297.534 242.546 297.811 242.601 298.06 242.684C298.06 241.994 298.088 241.276 298.088 240.585C298.088 240.282 297.728 240.061 297.451 240.226C293.3 242.794 291.668 247.599 290.312 252.045C290.589 252.073 290.865 252.128 291.114 252.156C290.976 250.747 289.703 248.345 288.154 250.14C287.379 251.051 287.074 252.542 286.742 253.674C286.189 255.497 285.802 257.375 285.525 259.28C285.497 259.832 286.272 260.053 286.355 259.529Z" fill="#E8E8E8"/>
<path d="M93.0163 212.916C95.1747 211.756 97.3607 210.596 99.7404 209.961C102.259 209.298 104.749 209.519 107.267 209.85C112.275 210.513 117.284 211.176 122.265 211.839C122.791 211.922 122.791 211.093 122.265 211.01C116.924 210.292 111.556 209.519 106.216 208.884C103.753 208.58 101.401 208.58 99.021 209.271C96.752 209.933 94.649 211.066 92.5736 212.17C92.1032 212.474 92.5459 213.164 93.0163 212.916Z" fill="#E8E8E8"/>
<path d="M261.34 25.6074C263.332 23.923 266.127 24.2543 268.313 25.3313C269.974 26.1321 271.329 27.7614 273.266 27.8442C275.065 27.8994 276.559 26.6844 278.081 25.8836C279.105 25.3589 280.157 24.9999 281.319 25.2484C282.564 25.497 283.643 26.2149 284.778 26.712C288.513 28.3413 291.004 26.0769 294.158 24.2819C295.044 23.7849 295.985 23.3431 297.008 23.2602C298.309 23.1498 299.471 23.7297 300.633 24.2267C302.46 24.9999 303.843 25.3037 305.697 24.5581C307.606 23.8125 309.156 23.923 311.065 24.6133C312.283 25.0551 313.445 25.6074 314.718 25.8836C316.627 26.3254 318.675 26.2149 320.114 24.7514C320.501 24.3648 319.892 23.7849 319.533 24.1715C317.679 26.0493 314.856 25.1656 312.726 24.3372C310.567 23.5087 308.354 22.6251 306.057 23.4811C304.618 24.0334 303.649 24.42 302.1 23.8953C301.048 23.5364 300.08 22.9565 299.001 22.6527C297.368 22.1556 295.846 22.4318 294.352 23.1774C292.636 24.0334 291.142 25.3865 289.343 26.1045C286.964 27.0434 285.11 25.8007 282.951 24.8895C281.374 24.2267 279.88 24.1163 278.303 24.8066C276.393 25.6627 274.539 27.5404 272.298 26.7396C271.108 26.3254 270.167 25.3589 269.088 24.7514C268.175 24.2543 267.179 23.8953 266.155 23.702C264.19 23.3431 262.281 23.6744 260.731 24.9723C260.344 25.3865 260.953 25.9664 261.34 25.6074Z" fill="#E8E8E8"/>
<path d="M271.302 44.468C271.828 44.468 271.828 43.6395 271.302 43.6395C270.776 43.6395 270.776 44.468 271.302 44.468Z" fill="#E8E8E8"/>
<path d="M276.836 47.478C278.137 45.1307 281.208 46.2629 283.117 47.0361C285.027 47.8093 286.742 48.2788 288.762 47.5884C290.423 47.0085 291.917 45.9039 293.632 45.5173C296.012 44.9651 297.368 46.9809 299.526 47.4504C302.902 48.1959 306.306 44.4404 309.488 46.0144C310.374 46.4562 310.982 47.0361 312.034 46.9533C313.002 46.8981 313.888 46.4286 314.829 46.2077C317.457 45.6002 320.197 46.0696 322.549 47.3675C323.019 47.616 323.434 46.8981 322.964 46.6495C321.47 45.8211 319.865 45.324 318.177 45.1584C317.319 45.0755 316.434 45.1031 315.576 45.2412C314.552 45.3793 313.611 45.8211 312.615 46.0144C311.259 46.2629 310.678 45.6002 309.571 45.1307C309.018 44.9098 308.409 44.7994 307.828 44.827C306.444 44.8822 305.116 45.4621 303.843 45.9316C302.211 46.5391 300.467 47.119 298.807 46.2905C297.396 45.6002 296.289 44.5508 294.629 44.5508C291.197 44.5785 288.79 47.8646 285.165 46.8705C282.481 46.1249 278.164 43.5015 276.172 47.0361C275.868 47.5332 276.587 47.9474 276.836 47.478Z" fill="#E8E8E8"/>
<path d="M249.995 80.5324C251.96 78.986 254.201 79.0688 256.359 80.0629C257.549 80.6152 258.822 81.1399 260.067 80.3943C260.787 79.9525 261.257 79.2621 262.115 79.0136C263.028 78.7374 263.997 78.9307 264.882 79.1517C266.459 79.5383 267.981 80.2286 269.614 80.3391C271.551 80.4771 273.322 79.6487 275.203 79.4554C277.223 79.2621 278.635 80.4771 280.516 80.7533C282.343 81.0018 283.754 79.5383 285.58 79.8144C287.794 80.1458 289.98 80.8914 292.166 81.4436C292.692 81.5817 292.913 80.7809 292.387 80.6428C290.091 80.0629 287.711 79.1793 285.359 78.9307C283.366 78.7098 281.928 80.3391 279.935 79.7315C278.081 79.1793 276.753 78.3784 274.761 78.6546C272.63 78.9583 270.693 79.7868 268.507 79.3173C266.819 78.9583 265.187 78.1575 263.443 78.0471C262.807 78.0195 262.143 78.0747 261.534 78.3232C260.759 78.627 260.344 79.2621 259.625 79.6763C257.964 80.6428 255.723 78.5994 253.952 78.4613C252.264 78.3232 250.714 78.9031 249.386 79.9249C248.971 80.2838 249.58 80.8637 249.995 80.5324Z" fill="#E8E8E8"/>
<path d="M91.356 20.2779C91.8818 20.2779 91.8818 19.4495 91.356 19.4495C90.8303 19.4495 90.8303 20.2779 91.356 20.2779Z" fill="#E8E8E8"/>
<path d="M93.7911 20.913C94.2892 18.4553 97.5544 20.0293 98.7442 20.7749C100.1 21.6309 101.539 22.4041 103.199 21.9347C104.998 21.41 106.215 19.8636 108.208 19.7532C110.089 19.6703 111.916 20.5264 113.687 21.0786C115.209 21.5481 116.814 21.8795 118.391 21.4929C120.245 21.051 121.822 19.7532 123.704 19.4218C127.412 18.7866 130.76 21.7966 134.523 20.6368C135.021 20.4711 134.827 19.6703 134.302 19.836C130.372 21.0786 126.637 17.5992 122.652 18.8419C120.604 19.477 118.889 20.913 116.647 20.8301C114.572 20.7473 112.691 19.7532 110.726 19.2561C109.176 18.8695 107.599 18.759 106.105 19.4494C105.247 19.836 104.5 20.4711 103.642 20.8853C102.231 21.5481 101.041 21.1615 99.7681 20.4435C98.3845 19.6427 97.1946 18.7038 95.5067 18.8419C94.3168 18.9247 93.2653 19.5322 93.0439 20.7473C92.9056 21.2167 93.7081 21.4376 93.7911 20.913Z" fill="#E8E8E8"/>
<path d="M96.3092 182.153C99.602 180.773 102.923 183.23 106.243 183.396C107.959 183.479 109.619 183.065 111.307 182.733C113.438 182.319 115.264 182.291 117.312 183.147C118.557 183.672 119.691 184.003 120.964 183.506C121.684 183.23 122.292 182.761 123.012 182.512C123.814 182.236 124.644 182.181 125.502 182.181C128.463 182.236 131.424 183.258 134.246 181.932C134.717 181.711 134.302 180.993 133.831 181.214C130.815 182.623 127.467 181.076 124.285 181.408C122.763 181.573 121.767 182.457 120.355 182.871C118.667 183.368 117.007 181.932 115.347 181.684C111.777 181.132 108.401 183.12 104.804 182.402C101.926 181.822 99.0209 180.137 96.0878 181.38C95.6174 181.573 95.8388 182.374 96.3092 182.153Z" fill="#E8E8E8"/>
<path d="M36.484 141.477C38.8987 141.477 40.8561 139.524 40.8561 137.114C40.8561 134.705 38.8987 132.751 36.484 132.751C34.0694 132.751 32.112 134.705 32.112 137.114C32.112 139.524 34.0694 141.477 36.484 141.477Z" fill="#0A3871"/>
<path d="M290.976 111.488C292.672 111.488 294.048 110.116 294.048 108.423C294.048 106.73 292.672 105.358 290.976 105.358C289.28 105.358 287.905 106.73 287.905 108.423C287.905 110.116 289.28 111.488 290.976 111.488Z" fill="#0A3871"/>
<path d="M263.333 4.70331C264.586 4.70331 265.602 3.68952 265.602 2.43894C265.602 1.18836 264.586 0.174561 263.333 0.174561C262.079 0.174561 261.063 1.18836 261.063 2.43894C261.063 3.68952 262.079 4.70331 263.333 4.70331Z" fill="#0A3871"/>
<path d="M163.384 201.069C164.943 201.069 166.207 199.808 166.207 198.252C166.207 196.697 164.943 195.436 163.384 195.436C161.825 195.436 160.562 196.697 160.562 198.252C160.562 199.808 161.825 201.069 163.384 201.069Z" fill="#0A3871"/>
<path d="M33.2742 41.0991C35.0622 41.0991 36.5117 39.6526 36.5117 37.8682C36.5117 36.0838 35.0622 34.6373 33.2742 34.6373C31.4861 34.6373 30.0366 36.0838 30.0366 37.8682C30.0366 39.6526 31.4861 41.0991 33.2742 41.0991Z" fill="#0A3871"/>
<path d="M144.9 154.456C145.924 154.456 146.754 153.628 146.754 152.606C146.754 151.584 145.924 150.756 144.9 150.756C143.876 150.756 143.046 151.584 143.046 152.606C143.046 153.628 143.876 154.456 144.9 154.456Z" fill="#0A3871"/>
<path d="M319.892 170.196C321.451 170.196 322.715 168.935 322.715 167.38C322.715 165.824 321.451 164.563 319.892 164.563C318.334 164.563 317.07 165.824 317.07 167.38C317.07 168.935 318.334 170.196 319.892 170.196Z" fill="#0A3871"/>
<path d="M12.2441 216.754C13.4055 216.754 14.3471 215.814 14.3471 214.655C14.3471 213.496 13.4055 212.557 12.2441 212.557C11.0826 212.557 10.1411 213.496 10.1411 214.655C10.1411 215.814 11.0826 216.754 12.2441 216.754Z" fill="#0A3871"/>
<path d="M98.2462 53.6636C95.8388 58.5514 93.4037 63.4391 90.9963 68.3269C100.958 81.6646 110.92 94.9747 120.881 108.312C123.455 104.419 126 100.442 128.574 96.4383C134.634 86.9389 140.417 77.5501 145.951 68.244C144.07 63.4667 142.16 58.6618 140.279 53.8846C139.061 53.2494 137.844 52.6419 136.626 52.0068C124.838 52.0344 113.05 52.062 101.29 52.0896C100.238 52.6419 99.2423 53.1666 98.2462 53.6636Z" fill="white"/>
<path d="M91.3284 68.5478C93.4314 63.9362 95.5897 59.3522 97.8034 54.7959C98.0248 54.3264 97.333 53.8846 97.084 54.3816C94.8703 58.938 92.7119 63.522 90.6089 68.1336C90.3875 68.603 91.107 69.0449 91.3284 68.5478Z" fill="black"/>
<path d="M90.775 69.0448C100.515 82.3826 110.449 95.5546 120.577 108.616C120.909 109.03 121.49 108.451 121.158 108.036C111.086 95.03 101.207 81.9131 91.4944 68.6306C91.19 68.2164 90.4706 68.6306 90.775 69.0448Z" fill="black"/>
<path d="M97.9971 54.3264C99.1593 53.7189 100.294 53.0837 101.456 52.4762C101.926 52.2277 101.511 51.5097 101.041 51.7583C99.8787 52.3658 98.7442 53.0009 97.582 53.6084C97.0839 53.8846 97.5267 54.5749 97.9971 54.3264Z" fill="black"/>
<path d="M102.148 52.5314C110.781 52.5314 119.442 52.5314 128.076 52.5314C128.601 52.5314 128.601 51.703 128.076 51.703C119.442 51.703 110.781 51.703 102.148 51.703C101.622 51.703 101.622 52.5314 102.148 52.5314Z" fill="black"/>
<path d="M146.339 68.1611C144.595 63.5496 142.797 58.9932 140.943 54.4092C140.749 53.9122 139.947 54.1331 140.14 54.6301C141.994 59.1865 143.793 63.7705 145.536 68.3821C145.73 68.8791 146.532 68.6582 146.339 68.1611Z" fill="black"/>
<path d="M145.426 68.5754C137.318 81.8303 129.044 95.0024 120.604 108.064C120.3 108.506 121.02 108.92 121.324 108.478C129.764 95.4166 138.037 82.2721 146.145 68.9896C146.422 68.5478 145.702 68.106 145.426 68.5754Z" fill="black"/>
<path d="M140.445 53.5533C139.476 52.9457 138.508 52.3106 137.539 51.7031C137.097 51.4269 136.681 52.1173 137.124 52.4211C138.093 53.0286 139.061 53.6637 140.03 54.2712C140.5 54.575 140.915 53.857 140.445 53.5533Z" fill="black"/>
<path d="M136.598 51.6202C129.376 51.6202 122.154 51.6202 114.96 51.6202C114.434 51.6202 114.434 52.4487 114.96 52.4487C122.182 52.4487 129.404 52.4487 136.598 52.4487C137.124 52.4487 137.124 51.6202 136.598 51.6202Z" fill="black"/>
<path d="M91.6605 68.962C96.6136 66.8357 101.567 64.7094 106.52 62.5831C107.018 62.3622 106.575 61.6718 106.105 61.8651C101.152 63.9914 96.1985 66.1177 91.2454 68.244C90.775 68.465 91.19 69.1829 91.6605 68.962Z" fill="black"/>
<path d="M98.1355 54.0779C101.179 54.5473 104.168 55.2101 107.129 56.0385C107.654 56.1766 107.876 55.3758 107.35 55.2377C104.389 54.3816 101.401 53.7465 98.3568 53.2771C97.8311 53.1942 97.5821 53.995 98.1355 54.0779Z" fill="black"/>
<path d="M106.907 55.9005C107.571 57.9716 108.152 60.0426 108.651 62.1689C108.761 62.6936 109.564 62.4727 109.453 61.948C108.955 59.8217 108.374 57.7506 107.71 55.6796C107.544 55.1825 106.741 55.3758 106.907 55.9005Z" fill="black"/>
<path d="M108.18 55.9833C115.596 55.9833 122.984 55.9833 130.4 55.9833C130.926 55.9833 130.926 55.1548 130.4 55.1548C122.984 55.1548 115.596 55.1548 108.18 55.1548C107.654 55.1548 107.654 55.9833 108.18 55.9833Z" fill="black"/>
<path d="M130.04 56.149C129.764 57.6678 129.487 59.2142 129.21 60.733C129.127 61.2577 129.93 61.4786 130.013 60.9539C130.289 59.4351 130.566 57.8887 130.843 56.3699C130.926 55.8452 130.123 55.6243 130.04 56.149Z" fill="black"/>
<path d="M109.093 62.2241C115.568 62.2241 122.043 62.2241 128.546 62.2241C129.072 62.2241 129.072 61.3956 128.546 61.3956C122.071 61.3956 115.596 61.3956 109.093 61.3956C108.568 61.3956 108.568 62.2241 109.093 62.2241Z" fill="black"/>
<path d="M131.203 55.9833C134.219 55.3482 137.207 54.713 140.223 54.0779C140.749 53.9675 140.528 53.1666 140.002 53.2771C136.986 53.9122 133.997 54.5474 130.981 55.1825C130.455 55.2929 130.677 56.0938 131.203 55.9833Z" fill="black"/>
<path d="M129.819 61.9756C132.614 62.4174 135.215 63.9914 137.761 65.1788C140.472 66.4491 143.157 67.7194 145.868 68.9896C146.339 69.2105 146.782 68.4926 146.283 68.2716C143.406 66.9185 140.555 65.5931 137.678 64.24C135.243 63.0802 132.725 61.6166 130.04 61.1748C129.515 61.0919 129.293 61.8927 129.819 61.9756Z" fill="black"/>
<path d="M109.342 63.4944C112.94 78.2957 116.509 93.1246 120.106 107.926C120.245 108.451 121.02 108.23 120.909 107.705C117.312 92.9037 113.742 78.0748 110.145 63.2735C110.006 62.7488 109.204 62.9697 109.342 63.4944Z" fill="black"/>
<path d="M128.657 64.4885C125.281 78.7375 122.486 93.1522 120.328 107.65C120.245 108.174 121.047 108.395 121.13 107.871C123.289 93.3731 126.083 78.986 129.459 64.7094C129.598 64.1847 128.795 63.9638 128.657 64.4885Z" fill="black"/>
<path d="M128.934 36.8466C130.179 33.6709 130.871 30.3296 130.981 26.9054C131.009 26.3807 130.179 26.3807 130.151 26.9054C130.04 30.2467 129.349 33.5052 128.131 36.6257C127.937 37.1227 128.74 37.316 128.934 36.8466Z" fill="black"/>
<path d="M134.606 37.3988C137.263 34.3888 140.251 31.7378 143.599 29.5011C144.042 29.1973 143.627 28.4794 143.184 28.7831C139.781 31.0475 136.709 33.7537 134.025 36.8189C133.665 37.2055 134.246 37.7854 134.606 37.3988Z" fill="black"/>
<path d="M140.057 42.5075C143.489 41.4858 147.03 41.0992 150.6 41.3753C151.126 41.4029 151.126 40.5745 150.6 40.5469C146.947 40.2707 143.35 40.6573 139.836 41.7067C139.338 41.8724 139.532 42.6732 140.057 42.5075Z" fill="black"/>
<path d="M81.7541 23.1498C82.0862 28.6174 79.0147 33.8366 74.0892 36.2114C73.8125 36.3495 73.8402 36.7637 74.0892 36.9294C78.5996 39.6356 80.675 44.6062 81.8648 49.4939C82.0032 50.0186 82.778 49.7977 82.6673 49.273C81.4221 44.1643 79.2084 39.0004 74.5043 36.2114C74.5043 36.4599 74.5043 36.6808 74.5043 36.9294C79.6788 34.4165 82.944 28.866 82.5843 23.1498C82.5566 22.6251 81.7265 22.6251 81.7541 23.1498Z" fill="#E8E8E8"/>
<path d="M82.0585 23.1498C81.6988 28.8936 84.964 34.4441 90.1385 36.9294C90.1385 36.6808 90.1385 36.4599 90.1385 36.2114C85.4067 39.028 83.193 44.1919 81.9478 49.3282C81.8094 49.8529 82.6119 50.0738 82.7503 49.5491C83.9401 44.6338 86.0155 39.6356 90.5535 36.9294C90.8026 36.7913 90.8303 36.3495 90.5535 36.2114C85.6281 33.8365 82.5289 28.6174 82.861 23.1498C82.9163 22.6251 82.0862 22.6251 82.0585 23.1498Z" fill="#E8E8E8"/>
<path d="M216.79 230.451C217.758 230.037 219.086 229.429 220.608 228.573C223.154 227.165 224.427 226.447 225.202 225.315C226.198 223.823 225.81 223.023 227.111 221.531C227.305 221.283 228.218 220.316 229.408 219.792C231.455 218.936 233.365 219.957 236.547 221.09C239.48 222.139 241.777 222.636 246.37 223.658C248.196 224.072 250.41 224.486 253.62 225.48C254.533 225.756 255.253 226.005 255.751 226.171C255.806 226.751 255.834 228.242 254.865 229.595C254.422 230.202 253.814 230.699 252.845 231.141C250.604 232.191 248.473 231.997 246.674 231.914C242.801 231.749 244.405 232.301 235.274 232.467C233.282 232.494 231.649 232.494 230.515 232.494C229.103 233.461 227.692 234.455 226.253 235.477C223.818 237.244 221.494 239.011 219.28 240.751C218.45 237.327 217.62 233.875 216.79 230.451Z" fill="black"/>
<path d="M205.251 195.104C203.258 196.154 203.037 196.54 195.621 202.836C184.055 212.64 182.782 213.164 172.294 222.305C162.25 231.031 160.368 233.212 158.459 236.084C153.699 243.347 152.648 249.422 152.343 252.377C151.928 256.353 151.375 261.876 154.889 266.239C157.103 268.973 159.981 270.105 160.949 270.464C163.855 271.569 166.234 271.431 170.523 271.127C176.224 270.713 180.568 269.608 182.284 269.139C184.165 268.614 188.537 267.316 194.016 264.61C199.163 262.069 201.377 260.192 208.405 255.469C211.532 253.371 216.153 250.306 221.964 246.771C222.324 244.01 222.019 241.856 221.715 240.502C220.996 237.299 219.529 235.09 217.896 232.66C216.568 230.672 215.295 229.153 214.41 228.159C216.485 226.585 219.197 224.32 222.047 221.283C223.956 219.239 226.973 215.981 229.491 211.397C232.59 205.764 235.689 200.075 233.697 196.154C230.57 189.996 215.683 189.72 205.251 195.104Z" fill="white"/>
<path opacity="0.18" d="M230.044 198.114C228.467 201.76 225.866 206.923 221.715 212.446C215.683 220.427 209.595 224.845 200.408 231.39C174.425 249.891 167.452 254.116 168.227 255.884C169.278 258.286 183.916 253.978 186.047 253.343C201.598 248.759 213.054 241.69 220.221 236.526C218.395 233.737 216.568 230.948 214.742 228.186C216.983 226.585 220.082 224.044 222.988 220.261C224.593 218.19 227.028 214.987 228.605 210.154C230.21 205.349 230.265 201.069 230.044 198.114Z" fill="#9B9797"/>
<path d="M205.14 195.077C195.289 202.395 185.687 210.072 176.445 218.107C172.018 221.946 167.59 225.784 163.44 229.899C159.759 233.544 156.328 237.575 154.253 242.38C152.094 247.351 151.486 253.095 152.011 258.479C152.454 262.925 154.087 267.399 158.154 269.719C162.416 272.121 167.784 271.872 172.488 271.375C178.271 270.795 183.972 269.387 189.367 267.206C201.404 262.318 210.84 253.178 222.213 247.13C222.684 246.881 222.269 246.163 221.798 246.412C212.307 251.465 204.227 258.756 194.708 263.809C189.727 266.46 184.359 268.393 178.825 269.58C173.706 270.657 167.95 271.486 162.748 270.492C160.313 270.022 157.961 269.028 156.217 267.206C154.529 265.411 153.616 263.063 153.146 260.661C152.122 255.442 152.592 249.532 154.308 244.507C156.024 239.481 159.372 235.256 163.024 231.5C166.815 227.607 170.966 224.017 175.034 220.455C184.857 211.839 195.04 203.61 205.555 195.823C205.97 195.491 205.583 194.773 205.14 195.077Z" fill="black"/>
<path d="M178.022 251.686C187.098 248.179 195.317 242.933 203.12 237.189C206.966 234.372 210.757 231.445 214.521 228.518C218.229 225.618 221.77 222.553 224.648 218.825C224.98 218.411 224.261 217.997 223.929 218.411C220.996 222.222 217.315 225.287 213.552 228.242C209.844 231.141 206.109 234.013 202.29 236.802C194.653 242.38 186.656 247.517 177.801 250.913C177.303 251.079 177.524 251.88 178.022 251.686Z" fill="black"/>
<path d="M214.105 228.435C219.446 232.909 222.269 239.84 221.521 246.771C221.466 247.296 222.296 247.296 222.352 246.771C223.099 239.647 220.165 232.467 214.687 227.855C214.299 227.496 213.718 228.076 214.105 228.435Z" fill="black"/>
<path d="M221.466 239.066C223.043 238.597 224.427 237.272 225.755 236.333C227.415 235.173 229.048 234.013 230.708 232.853C231.151 232.549 230.736 231.832 230.293 232.135C228.799 233.185 227.277 234.262 225.783 235.311C224.399 236.277 222.877 237.769 221.245 238.266C220.719 238.404 220.94 239.205 221.466 239.066Z" fill="black"/>
<path d="M216.9 230.837C220.027 229.54 222.905 227.772 225.506 225.591C225.921 225.232 225.312 224.652 224.925 225.011C222.462 227.11 219.695 228.794 216.707 230.037C216.209 230.258 216.43 231.058 216.9 230.837Z" fill="black"/>
<path d="M225.202 225.232C225.727 225.232 225.727 224.403 225.202 224.403C224.676 224.403 224.676 225.232 225.202 225.232Z" fill="black"/>
<path d="M226.198 224.238C226.668 223.133 227.166 221.918 228.052 221.062C229.242 219.902 230.681 220.068 232.202 220.399C235.025 221.034 237.792 221.918 240.559 222.719C243.133 223.437 245.706 224.072 248.362 224.376C249.912 224.541 251.213 224.735 252.596 225.425C253.62 225.922 254.505 226.419 255.64 226.53C256.166 226.585 256.166 225.756 255.64 225.701C254.118 225.563 252.928 224.514 251.489 224.044C250.05 223.575 248.445 223.603 246.951 223.354C243.686 222.829 240.504 221.835 237.349 220.896C235.8 220.454 234.25 220.013 232.673 219.654C231.511 219.405 230.293 219.101 229.131 219.46C227.111 220.068 226.142 222.222 225.395 224.017C225.202 224.514 226.004 224.735 226.198 224.238Z" fill="black"/>
<path d="M230.598 233.461C236.519 232.577 242.385 232.439 248.362 232.329C250.438 232.301 252.651 232.053 254.312 230.699C255.723 229.54 256.525 227.855 256.138 226.06C256.027 225.535 255.225 225.756 255.336 226.281C255.861 228.794 253.592 230.644 251.351 231.196C249.054 231.749 246.564 231.473 244.212 231.528C239.563 231.611 234.97 231.997 230.376 232.688C229.85 232.743 230.099 233.544 230.598 233.461Z" fill="black"/>
<path d="M251.6 227.965C253.648 226.502 255.723 225.038 257.771 223.575C257.909 222.636 258.352 220.592 260.04 218.853C260.538 218.328 261.7 217.113 263.443 216.782C265.27 216.423 266.681 217.251 268.258 217.969C270.804 219.129 273.266 219.571 278.137 220.51C281.983 221.228 283.92 221.587 286.687 221.448C290.45 221.228 293.134 220.233 294.739 221.807C294.905 221.973 295.597 222.719 295.542 223.63C295.459 224.79 294.214 225.535 293.217 226.115C288.873 228.601 286.438 229.319 286.438 229.319C280.295 231.113 277.196 232.025 274.539 232.246C272.381 232.411 269.309 232.494 265.602 231.914C264.522 235.615 261.257 237.989 258.186 237.796C254.229 237.548 250.576 233.102 251.6 227.965Z" fill="black"/>
<path d="M211.864 203.554C212.473 201.704 213.607 199.357 215.738 198.584C217.122 198.087 218.394 198.418 218.809 198.529C221.383 199.164 226.668 198.252 237.211 196.457C242.441 195.574 249.054 194.276 256.664 192.343C256.691 193.751 256.664 195.601 256.581 197.755C256.387 202.588 255.889 206.233 255.778 207.089C255.308 210.513 254.478 216.202 251.96 223.105C251.323 224.873 250.687 226.336 250.244 227.33C251.323 227.827 252.485 228.49 253.62 229.429C258.296 233.157 259.652 238.431 260.095 240.668C259.431 241.469 258.435 242.656 257.162 244.009C252.015 249.477 247.255 252.542 238.179 258.148C232.59 261.6 228.494 264.113 221.936 267.979C213.967 272.673 207.52 276.318 199.495 278.61C197.503 279.19 194.348 279.963 190.364 279.549C188.427 279.356 184.94 278.997 181.592 276.567C177.303 273.474 175.947 268.945 175.393 266.957C174.148 262.511 174.619 258.341 175.781 254.006C176.583 250.968 179.489 240.889 189.589 229.539C191.609 227.275 197.364 222.166 208.82 211.949C211.587 209.491 213.856 207.476 215.378 206.15C214.216 205.266 213.054 204.41 211.864 203.554Z" fill="white"/>
<path opacity="0.18" d="M249.497 195.905C248.861 198.335 247.837 201.842 246.287 205.957C232.147 243.347 200.547 259.501 203.12 263.533C205.002 266.515 223.043 259.087 236.049 251.272C245.789 245.418 253.039 239.149 257.881 234.427C257.107 233.295 255.917 231.749 254.118 230.285C252.375 228.877 250.714 228.021 249.469 227.496C250.327 226.253 251.462 224.376 252.43 221.973C253.067 220.427 253.62 218.77 254.339 215.401C255.502 210.071 255.972 205.846 256.11 204.521C256.442 201.345 256.747 197.231 256.691 192.371C254.284 193.53 251.904 194.718 249.497 195.905Z" fill="#9B9797"/>
<path d="M256.276 192.343C256.304 197.562 255.972 202.781 255.253 207.973C254.588 212.64 253.758 217.444 252.043 221.863C250.189 226.64 247.007 230.119 243.16 233.406C239.231 236.747 235.274 240.033 231.317 243.319C226.779 247.102 222.213 250.858 217.675 254.641C217.26 254.972 217.841 255.552 218.256 255.221C226.585 248.317 234.914 241.441 243.188 234.455C246.841 231.362 250.161 228.159 252.153 223.713C254.09 219.405 255.031 214.683 255.778 210.044C256.719 204.19 257.162 198.28 257.107 192.343C257.107 191.791 256.276 191.791 256.276 192.343Z" fill="black"/>
<path d="M212.335 204.328C213.469 204.935 214.604 205.543 215.766 206.15C216.236 206.399 216.651 205.681 216.181 205.432C215.046 204.825 213.912 204.217 212.75 203.61C212.279 203.361 211.864 204.079 212.335 204.328Z" fill="black"/>
<path d="M215.766 205.819C205.915 213.827 195.566 221.752 187.347 231.473C180.264 239.84 174.425 250.444 174.453 261.683C174.453 266.626 175.809 271.79 179.461 275.297C183.114 278.831 188.399 280.212 193.38 279.963C199.467 279.66 205.251 277.257 210.674 274.606C216.485 271.762 221.992 268.393 227.526 265.052C238.926 258.148 251.655 251.714 260.206 241.193C260.538 240.779 259.957 240.199 259.625 240.613C252.458 249.45 242.385 255.11 232.783 260.909C227.498 264.113 222.268 267.371 216.873 270.409C211.587 273.391 206.081 276.235 200.242 277.92C194.763 279.494 188.648 279.825 183.473 277.092C178.493 274.496 175.947 269.47 175.421 264.002C174.397 252.957 179.959 241.966 186.683 233.571C195.068 223.105 206.025 214.766 216.374 206.371C216.762 206.067 216.181 205.487 215.766 205.819Z" fill="black"/>
<path d="M250.05 227.662C255.253 230.147 258.877 235.062 259.735 240.751C259.818 241.276 260.621 241.055 260.538 240.53C259.68 234.648 255.861 229.484 250.493 226.944C249.995 226.723 249.58 227.441 250.05 227.662Z" fill="black"/>
<path d="M251.711 228.38C252.817 227.938 253.703 227.192 254.644 226.474C255.751 225.618 256.885 224.79 257.992 223.934C258.407 223.602 257.992 222.885 257.577 223.216C256.581 223.961 255.585 224.707 254.588 225.48C253.62 226.226 252.651 227.137 251.489 227.579C251.019 227.772 251.213 228.573 251.711 228.38Z" fill="black"/>
<path d="M258.407 223.602C258.96 221.973 259.625 220.371 260.51 218.88C261.728 216.837 263.554 217.058 265.602 217.582C268.784 218.383 271.828 219.598 275.037 220.316C281.263 221.697 287.656 222.166 294.02 221.752C294.546 221.725 294.546 220.896 294.02 220.924C286.521 221.421 278.967 220.648 271.717 218.604C269.974 218.107 268.286 217.472 266.542 216.975C265.214 216.588 263.637 216.146 262.253 216.423C261.008 216.671 260.289 217.61 259.68 218.659C258.822 220.151 258.158 221.752 257.605 223.381C257.439 223.878 258.241 224.099 258.407 223.602Z" fill="black"/>
<path d="M259.597 236.94C261.672 235.366 263.72 233.792 265.795 232.218C266.21 231.887 265.795 231.169 265.38 231.5C263.305 233.074 261.257 234.648 259.182 236.222C258.767 236.553 259.182 237.271 259.597 236.94Z" fill="black"/>
<path d="M265.768 232.025C272.519 233.488 279.409 232.384 285.802 229.954C288.707 228.849 292.028 227.606 294.518 225.729C296.261 224.431 296.51 221.946 294.214 221.062C293.715 220.869 293.494 221.669 293.992 221.863C295.237 222.332 295.376 223.685 294.518 224.624C294.103 225.094 293.522 225.397 292.968 225.729C291.834 226.364 290.672 226.944 289.509 227.496C287.047 228.656 284.501 229.65 281.872 230.423C276.698 231.914 271.274 232.411 265.961 231.252C265.463 231.114 265.242 231.914 265.768 232.025Z" fill="black"/>
<path d="M193.656 112.759C197.862 109.279 204.144 105.082 212.528 102.596C216.458 101.437 221.383 100.001 227.913 100.553C237.93 101.409 244.82 106.324 247.256 108.119C251.074 110.908 253.675 113.863 255.28 115.934C255.585 135.292 256 154.677 256.525 174.035C256.691 180 256.857 185.992 257.051 191.957C253.122 194.387 247.615 197.12 240.642 198.722C224.316 202.45 210.73 197.479 205.223 195.077C205.195 190.189 204.891 182.844 203.397 174.035C200.962 159.565 197.171 153.738 194.791 141.284C193.601 134.85 192.467 125.185 193.656 112.759Z" fill="#0A3871"/>
<path d="M243.686 117.536C242.33 119.027 242.081 120.711 242.164 127.173C242.219 133.966 242.579 138.605 242.8 143.99C242.967 147.884 243.105 150.977 243.022 155.008C242.939 160.089 242.607 164.259 242.302 167.048C239.591 170.086 237.183 172.461 235.385 174.173C231.345 178.011 226.945 182.153 220.442 186.047C217.869 187.566 215.655 188.67 214.161 189.361C212.805 189.14 211.283 188.808 209.623 188.394C205.693 187.4 204.061 186.516 201.1 186.516C200.215 186.516 197.42 186.516 197.143 187.51C196.894 188.339 198.444 189.637 199.661 190.272C200.796 190.852 201.294 190.686 202.428 191.211C203.701 191.818 204.531 192.702 205.029 193.365C204.504 194.11 203.701 195.242 202.816 196.706C201.792 198.418 201.57 199.081 200.381 201.124C199.135 203.278 198.499 204.355 197.945 204.907C197.088 205.708 196.562 205.874 192.716 207.586C188.897 209.298 188.233 209.685 188.233 210.154C188.233 210.624 188.98 210.734 191.941 212.004C194.348 213.026 194.57 213.247 195.815 213.606C197.364 214.048 198.305 214.324 199.44 214.075C201.238 213.716 202.401 212.363 202.899 211.645C203.148 211.866 203.756 212.336 204.559 212.363C205.195 212.363 205.721 212.115 206.136 211.783C207.879 210.541 208.737 208.249 210.453 205.681C210.757 205.239 211.836 203.61 213.58 201.787C214.659 200.627 215.655 199.771 216.375 199.191C217.343 198.97 218.782 198.639 220.497 198.142C227.166 196.237 231.981 193.945 236.021 192.012C238.373 190.879 241.03 189.388 246.315 186.433C250.908 183.865 253.288 182.429 255.391 179.613C255.612 179.309 256.747 177.79 257.743 175.553C258.047 174.863 259.126 172.405 259.708 168.098C259.984 166.192 259.984 165.143 260.012 159.178C260.067 151.584 260.067 152.495 260.067 151.722C260.04 140.594 259.459 141.588 259.265 131.37C259.237 130.404 259.209 127.781 258.407 124.467C257.549 120.877 256.47 119.275 255.861 118.475C255.086 117.453 254.146 116.238 252.541 115.547C249.608 114.25 245.706 115.299 243.686 117.536Z" fill="white"/>
<path opacity="0.25" d="M252.568 115.52C253.233 117.701 254.035 120.849 254.588 124.66C255.253 129.272 255.502 134.353 254.007 147.635C252.762 158.736 252.153 164.287 250.548 169.478C248.252 176.879 246.591 182.264 241.528 186.516C238.262 189.25 234.693 190.52 227.526 193.033C222.268 194.883 217.758 195.988 214.659 196.678C212.445 199.661 209.152 203.444 204.476 207.034C200.823 209.85 197.309 211.783 194.404 213.109C194.819 213.385 196.534 214.49 198.859 214.186C201.57 213.827 203.037 211.894 203.286 211.535C203.812 211.922 204.587 212.336 205.444 212.198C207.215 211.922 208.156 209.409 208.627 208.276C209.65 205.929 211.698 202.698 216.291 199.164C219.335 198.363 223.458 197.148 228.245 195.325C234.914 192.757 239.397 190.272 244.212 187.593C251.932 183.285 253.675 181.518 254.948 179.806C257.273 176.686 258.241 173.482 258.656 172.074C259.403 169.561 259.542 166.744 259.818 161.249C260.012 157.162 260.012 154.014 260.012 151.639C260.012 147.552 259.929 144.515 259.846 141.892C259.735 138.081 259.514 133.607 258.96 128.25C258.545 124.356 258.241 122.81 257.356 121.07C256 118.309 253.98 116.542 252.568 115.52Z" fill="#9B9797"/>
<path d="M243.271 117.425C241.832 121.015 241.666 124.881 241.749 128.719C241.832 132.944 242.053 137.142 242.247 141.367C242.634 149.927 242.911 158.515 241.887 167.048C241.832 167.573 242.662 167.573 242.717 167.048C243.714 158.709 243.492 150.286 243.105 141.919C242.911 137.777 242.69 133.635 242.579 129.465C242.468 125.461 242.551 121.429 244.073 117.646C244.267 117.149 243.465 116.928 243.271 117.425Z" fill="black"/>
<path d="M243.492 166.33C240.947 167.739 238.899 169.782 236.934 171.908C234.804 174.2 232.673 176.437 230.293 178.481C225.423 182.706 219.944 186.185 214.078 188.891C213.58 189.112 214.022 189.83 214.493 189.609C220.138 187.013 225.423 183.7 230.155 179.696C232.507 177.735 234.665 175.581 236.741 173.344C238.899 170.997 241.057 168.622 243.88 167.076C244.378 166.772 243.963 166.054 243.492 166.33Z" fill="black"/>
<path d="M214.271 188.946C211.228 188.311 208.156 187.648 205.112 186.958C203.59 186.627 202.041 186.213 200.491 185.936C199.523 185.771 198.499 185.688 197.641 186.24C196.313 187.096 196.313 188.67 197.503 189.609C198.361 190.299 199.467 190.603 200.491 190.935C202.152 191.459 203.563 192.122 204.642 193.53C204.974 193.945 205.693 193.53 205.361 193.116C204.393 191.873 203.231 190.99 201.736 190.465C200.713 190.106 199.578 189.885 198.637 189.361C197.973 189.002 197.115 188.449 197.613 187.455C198.084 186.516 199.274 186.599 200.132 186.737C202.428 187.069 204.725 187.731 207.022 188.256C209.374 188.781 211.726 189.278 214.078 189.775C214.576 189.858 214.797 189.057 214.271 188.946Z" fill="black"/>
<path d="M203.978 193.669C202.76 195.905 201.515 198.114 200.298 200.351C199.689 201.428 199.163 202.588 198.444 203.637C197.696 204.714 196.7 205.267 195.538 205.819C193.352 206.841 191 207.669 188.897 208.856C187.956 209.409 187.347 210.403 188.15 211.369C189.146 212.557 191.111 212.087 192.439 211.866C194.265 211.563 196.008 210.955 197.669 210.182C201.128 208.525 204.061 205.929 206.164 202.726C206.468 202.284 205.749 201.87 205.444 202.312C203.59 205.184 201.017 207.503 198.001 209.105C196.562 209.851 195.012 210.458 193.435 210.817C192.55 211.038 191.609 211.231 190.668 211.259C189.81 211.314 189.589 211.425 189.174 210.569C188.648 210.071 188.703 209.74 189.312 209.574C189.506 209.492 189.672 209.409 189.865 209.326C191.636 208.497 193.435 207.697 195.206 206.868C196.59 206.233 197.945 205.681 198.886 204.438C199.993 202.975 200.768 201.235 201.653 199.633C202.677 197.783 203.701 195.933 204.697 194.11C204.946 193.613 204.227 193.199 203.978 193.669Z" fill="black"/>
<path d="M216.624 199.716C224.012 197.645 231.179 194.884 238.041 191.459C241.445 189.747 244.765 187.897 248.003 185.854C250.908 184.031 253.98 182.181 256.055 179.392C256.359 178.95 255.64 178.536 255.336 178.978C253.177 181.905 249.801 183.81 246.757 185.688C243.658 187.593 240.448 189.361 237.183 190.99C230.514 194.276 223.569 196.927 216.402 198.943C215.904 199.053 216.125 199.854 216.624 199.716Z" fill="black"/>
<path d="M243.824 118.171C246.121 113.67 252.015 114.691 254.92 117.895C258.407 121.761 258.573 127.422 258.96 132.337C259.791 143.079 259.957 153.904 259.293 164.646C258.96 169.865 258.186 175.388 254.699 179.53C254.367 179.944 254.948 180.524 255.28 180.11C258.407 176.354 259.486 171.605 259.929 166.855C260.51 160.78 260.51 154.622 260.455 148.519C260.399 142.14 260.095 135.734 259.514 129.382C259.071 124.605 258.213 119.331 254.256 116.155C250.88 113.449 245.236 113.532 243.077 117.757C242.856 118.226 243.575 118.64 243.824 118.171Z" fill="black"/>
<path d="M191.692 212.336C193.712 213.247 196.147 214.628 198.444 214.628C200.657 214.6 202.29 212.778 203.784 211.397C208.073 207.42 212.362 203.444 216.651 199.495C217.039 199.136 216.458 198.556 216.07 198.915C212.445 202.284 208.82 205.625 205.195 208.994C203.59 210.458 201.93 212.557 199.91 213.468C197.53 214.545 194.265 212.612 192.134 211.645C191.636 211.397 191.221 212.115 191.692 212.336Z" fill="black"/>
<path d="M202.954 211.756C203.867 213.468 205.887 212.778 206.911 211.59C208.931 209.215 210.508 206.344 212.224 203.775C212.528 203.334 211.809 202.919 211.504 203.361C210.425 204.963 209.346 206.565 208.267 208.166C207.658 209.05 204.974 213.827 203.673 211.342C203.424 210.872 202.705 211.287 202.954 211.756Z" fill="black"/>
<path d="M196.534 210.403C197.364 210.845 198.388 211.287 199.301 210.845C199.772 210.596 199.965 210.21 200.187 209.768C200.574 209.022 200.962 208.442 201.681 207.973C202.124 207.669 201.709 206.951 201.266 207.255C200.602 207.697 200.049 208.249 199.661 208.967C199.384 209.492 199.218 210.127 198.499 210.182C197.973 210.237 197.392 209.906 196.949 209.685C196.507 209.464 196.064 210.154 196.534 210.403Z" fill="black"/>
<path d="M190.862 52.6143C189.893 54.5749 188.925 57.861 188.62 58.9379C188.177 60.4844 187.181 64.1018 186.628 68.9067C186.324 71.5577 185.991 74.4572 186.268 78.2956C186.407 80.1182 186.6 82.9901 187.679 86.5523C188.399 88.9824 189.45 92.4894 192.3 96.0793C194.791 99.1997 197.641 101.16 199.91 102.348C201.349 102.375 203.092 102.293 205.029 101.934C208.516 101.271 211.228 99.9729 213.054 98.9236C213.303 100.332 213.635 101.823 214.05 103.369C214.908 106.573 215.959 109.389 217.011 111.819C218.145 111.626 219.501 111.295 220.94 110.632C225.506 108.506 227.692 104.585 228.467 102.955C228.052 101.354 227.72 99.6139 227.415 97.819C226.364 91.1087 226.64 85.1164 227.305 80.2562C227.886 80.4495 228.826 80.6981 229.989 80.6428C232.258 80.5048 233.807 79.2621 234.582 78.5994C235.246 78.0471 238.262 75.3685 238.152 71.392C238.124 70.4531 238.069 68.1611 236.436 66.9185C234.914 65.7863 232.866 66.2005 231.372 66.5043C229.657 66.8633 228.384 67.5812 227.609 68.0783C228.19 66.1729 229.408 61.2852 227.609 55.5966C227.222 54.3816 224.648 46.6495 217.066 43.3082C206.773 38.7242 194.404 45.5174 190.862 52.6143Z" fill="white"/>
<path opacity="0.24" d="M222.13 52.78C222.351 55.3482 222.518 59.0761 222.13 63.4944C220.94 76.8874 215.627 86.1934 214.244 88.513C212.141 92.0477 208.544 97.1839 202.788 102.237C204.504 102.016 206.468 101.63 208.571 100.884C214.354 98.8408 218.228 95.3338 220.331 93.0418C220.498 96.107 221.023 99.8349 222.268 103.922C222.822 105.662 223.431 107.263 224.067 108.699C225.534 106.794 226.973 104.888 228.439 102.955C228.135 101.16 227.858 99.255 227.664 97.2944C227.028 91.3573 227.028 85.8897 227.36 81.0295C228.605 81.0571 230.404 80.9467 232.313 80.2011C240.67 76.8874 245.429 63.7153 240.919 56.5356C240.725 56.2318 239.729 54.6854 237.681 53.3047C231.345 49.0521 223.292 52.283 222.13 52.78Z" fill="#9B9797"/>
<path d="M188.842 58.1096C188.288 56.2042 187.513 52.5591 188.316 48.0856C188.565 46.7048 189.423 42.2589 192.467 38.7519C196.922 33.6432 202.511 34.6097 209.761 32.014C214.354 30.3848 220.663 26.9606 227.056 18.8972C226.474 21.8795 225.893 24.8895 225.312 27.8718C226.308 28.148 229.657 28.866 233.088 27.1815C238.788 24.3924 239.286 17.6545 239.314 17.3508C240.006 18.8972 241.251 22.3214 240.697 26.6844C240.31 29.6668 239.231 31.9035 238.456 33.2566C238.788 33.6156 240.559 35.4382 242.607 35.162C245.097 34.8307 247.422 31.4341 246.757 27.0434C247.311 28.6727 247.975 31.3513 247.809 34.6374C247.588 38.6414 246.259 41.6514 245.374 43.2807C245.595 43.474 247.006 44.7442 248.999 44.4957C250.742 44.2748 252.236 43.0045 252.817 41.2096C252.679 43.0597 252.347 45.7383 251.268 48.8035C249.801 52.9457 248.584 53.2771 247.975 56.2318C247.006 60.871 249.497 62.445 248.833 66.5872C248.279 70.0666 246.01 72.2481 243.133 75.0372C237.903 80.0906 231.898 82.8244 226.862 84.3432C227.083 82.7968 227.332 81.2504 227.554 79.704C228.19 80.0906 229.297 80.6153 230.68 80.5601C233.503 80.4496 235.274 77.9367 236.215 76.5836C237.294 75.0648 239.093 72.4691 238.124 69.68C237.322 67.4156 235.191 66.4767 234.997 66.3939C232.507 65.3445 229.297 66.2834 227.222 68.824C226.059 64.2676 224.925 59.7388 223.763 55.1825C219.833 52.6972 215.932 50.2395 212.002 47.7542C210.065 47.3952 204.78 46.6772 198.859 49.3006C192.882 51.9516 189.838 56.4527 188.842 58.1096Z" fill="#0A3871"/>
<path d="M188.427 57.9992C186.074 66.7805 184.663 76.1142 186.822 85.0889C188.593 92.3791 193.075 100.691 200.713 103.066C201.211 103.232 201.432 102.431 200.934 102.265C193.269 99.8902 188.98 91.2469 187.403 83.9567C185.549 75.3962 186.96 66.5596 189.201 58.2201C189.367 57.723 188.565 57.5021 188.427 57.9992Z" fill="black"/>
<path d="M201.321 102.928C214.078 101.63 224.731 92.4342 227.72 79.9525C227.83 79.4278 227.056 79.2069 226.917 79.7316C224.012 91.7991 213.746 100.829 201.321 102.099C200.796 102.154 200.768 102.983 201.321 102.928Z" fill="black"/>
<path d="M227 80.1734C232.7 83.6528 238.262 76.3626 238.622 71.254C238.816 68.5478 237.571 66.4767 234.887 65.7035C232.396 64.9855 229.684 65.7311 227.913 67.6089C227.554 67.9955 228.135 68.5754 228.494 68.1888C229.961 66.6147 232.175 65.9244 234.305 66.3938C235.412 66.6424 236.63 67.2499 237.266 68.244C237.958 69.321 237.875 70.8121 237.709 71.9995C237.045 76.2798 232.285 82.4102 227.415 79.4278C226.973 79.1793 226.53 79.8973 227 80.1734Z" fill="black"/>
<path d="M226.945 80.1182C225.866 87.7674 226.253 95.527 228.079 103.038C228.218 103.563 229.02 103.342 228.882 102.817C227.083 95.4442 226.696 87.8226 227.747 80.3391C227.803 79.8145 227 79.5935 226.945 80.1182Z" fill="black"/>
<path d="M212.639 99.034C213.497 103.508 214.825 107.843 216.651 112.04C216.873 112.537 217.592 112.096 217.371 111.626C215.572 107.512 214.271 103.231 213.441 98.8131C213.331 98.2885 212.556 98.5094 212.639 99.034Z" fill="black"/>
<path d="M217.232 112.151C222.573 111.295 227.083 107.622 229.103 102.624C229.297 102.127 228.494 101.906 228.301 102.403C226.391 107.153 222.047 110.549 217.011 111.35C216.485 111.433 216.707 112.234 217.232 112.151Z" fill="black"/>
<path d="M213.303 100C214.438 100.056 215.212 99.2825 216.07 98.6197C217.205 97.7361 218.284 96.7972 219.28 95.8031C221.134 93.9529 222.628 91.8266 223.597 89.3965C223.79 88.8995 222.988 88.6786 222.794 89.1756C221.936 91.3295 220.608 93.2349 219.003 94.8918C218.284 95.665 217.509 96.3554 216.707 97.0457C215.821 97.7913 214.548 99.2273 213.303 99.172C212.777 99.1444 212.777 99.9728 213.303 100Z" fill="black"/>
<path d="M213.358 99.5589C215.71 98.0401 217.896 96.3004 219.944 94.395C220.331 94.036 219.75 93.4285 219.363 93.8151C217.371 95.6929 215.24 97.3774 212.943 98.8685C212.473 99.1171 212.916 99.835 213.358 99.5589Z" fill="black"/>
<path d="M197.088 59.6008C195.538 66.6424 194.653 73.7946 194.459 81.0019C194.459 81.4161 195.012 81.5542 195.234 81.2228C196.313 79.5107 197.392 77.771 198.471 76.0589C198.748 75.6171 198.028 75.1753 197.752 75.6447C196.673 77.3568 195.593 79.0965 194.514 80.8086C194.763 80.8915 195.04 80.9467 195.289 81.0295C195.483 73.905 196.368 66.8081 197.89 59.8493C198.001 59.297 197.198 59.0761 197.088 59.6008Z" fill="black"/>
<path d="M198.195 91.3849C197.53 90.1423 197.088 88.8168 196.977 87.4084C196.894 86.4143 197.115 82.3826 198.997 83.9842C199.993 84.8403 199.855 86.7181 199.882 87.9607C199.882 88.5406 199.882 89.1481 199.827 89.728C199.799 90.1423 199.744 90.5565 199.661 90.9431C198.942 91.4401 198.388 91.4125 198.028 90.8879C197.669 90.5013 197.06 91.0812 197.447 91.4678C198.637 92.6828 200.187 92.738 200.519 90.8326C200.768 89.4795 200.768 88.0436 200.657 86.6905C200.574 85.6135 200.574 84.0671 199.772 83.2387C198.582 82.0236 196.894 83.1558 196.424 84.4537C195.566 86.7733 196.396 89.7004 197.503 91.7991C197.724 92.2686 198.444 91.8544 198.195 91.3849Z" fill="black"/>
<path d="M203.922 66.5319C204.753 70.4256 209.872 70.7293 211.394 67.1395C211.587 66.6424 210.785 66.4215 210.591 66.9185C209.346 69.8457 205.361 69.2934 204.725 66.311C204.614 65.814 203.812 66.0073 203.922 66.5319Z" fill="black"/>
<path d="M202.29 56.9498C203.341 54.6025 206.053 53.4703 208.544 53.995C211.117 54.5473 213.082 56.5355 214.354 58.7171C214.631 59.1865 215.351 58.7723 215.074 58.3029C213.607 55.79 211.283 53.5532 208.294 53.1114C205.61 52.7248 202.733 53.995 201.57 56.5079C201.349 57.0326 202.068 57.4468 202.29 56.9498Z" fill="black"/>
<path d="M186.075 57.8611C186.822 56.3147 188.122 54.6302 190.031 54.6578C191.858 54.6855 193.186 56.2871 194.099 57.6954C194.376 58.1373 195.095 57.723 194.819 57.2812C193.767 55.5967 192.19 53.857 190.031 53.8294C187.818 53.8018 186.268 55.6244 185.383 57.4469C185.134 57.9163 185.853 58.3306 186.075 57.8611Z" fill="black"/>
<path d="M190.972 70.3704C191.461 70.3704 191.858 68.553 191.858 66.3111C191.858 64.0692 191.461 62.2518 190.972 62.2518C190.483 62.2518 190.087 64.0692 190.087 66.3111C190.087 68.553 190.483 70.3704 190.972 70.3704Z" fill="black"/>
<path d="M193.518 114.056C193.435 115.078 193.324 116.486 193.269 118.116C193.02 123.694 193.241 127.919 193.324 129.051C193.546 132.724 194.044 137.529 195.206 143.107C194.099 144.377 192.439 146.255 190.308 148.464C186.268 152.689 184.193 154.843 180.872 157.079C177.164 159.565 174.591 160.338 173.207 160.697C171.464 161.111 169.804 161.498 167.784 161.056C164.491 160.31 162.526 157.88 161.807 156.941C159.981 154.622 159.566 152.357 158.818 147.939C158.265 144.708 158.154 142.251 157.988 137.501C157.905 135.237 157.795 132.475 157.85 128.775C157.905 124.605 158.127 119.662 158.735 114.139C159.012 111.654 159.399 108.589 160.008 105.109C159.538 104.447 159.04 103.784 158.514 103.093C157.961 102.375 157.435 101.685 156.881 100.995C155.47 102.182 154.087 103.397 152.675 104.585C152.316 104.723 151.679 104.944 150.904 104.861C149.438 104.723 148.58 103.701 148.276 103.37C146.92 101.823 147.113 99.8625 147.169 99.4759C149.078 97.4049 150.987 95.3614 152.924 93.2903C152.952 92.1029 153.118 90.5565 153.589 88.8444C153.948 87.5741 154.391 86.5248 154.806 85.6411C155.166 84.9232 155.664 84.1223 156.3 83.3215C157.435 81.8304 158.652 80.781 159.649 80.063C158.846 80.422 158.652 80.422 158.597 80.3668C158.459 80.1459 159.759 78.5166 161.586 78.3509C162.609 78.2405 163.412 78.6271 163.965 78.8756C164.823 79.2898 165.404 79.8145 165.764 80.2011C167.479 78.7375 169.195 77.274 170.911 75.838C171.519 76.197 172.128 76.6112 172.737 77.0255C174.148 77.992 175.421 78.9585 176.556 79.8973C176.141 80.422 175.615 81.0019 174.951 81.5818C173.844 82.5483 172.737 83.1282 171.879 83.5148C172.405 83.6805 173.346 84.0671 173.816 84.9784C174.287 85.862 174.093 86.8286 173.816 88.0436C173.622 88.872 173.373 89.5348 173.18 89.9766C173.29 91.1364 173.346 92.7104 173.014 94.4777C172.488 97.3772 171.27 99.5312 170.44 100.774C170.413 101.851 170.385 103.535 170.44 105.606C170.662 114.139 171.907 119.137 172.709 125.433C173.18 129.023 173.65 134.353 173.512 141.063C174.148 140.649 175.061 139.986 176.085 139.13C178.686 136.949 180.347 134.767 182.533 131.564C184.691 128.443 186.102 126.124 188.012 123.031C189.201 121.015 191.111 117.95 193.518 114.056Z" fill="white"/>
<path opacity="0.24" d="M168.365 88.8444C167.784 90.1146 167.203 91.4125 166.622 92.738C164.934 96.7145 163.55 100.525 162.416 104.17C162.167 109.914 162.028 114.719 161.918 118.198C161.779 123.473 162.111 129.769 162.72 142.361C162.969 147.553 163.19 150.701 165.626 152.993C168.171 155.367 171.713 155.423 173.705 155.423C184.331 155.395 192.273 146.365 194.459 143.742C191.498 148.768 188.122 152.054 185.825 153.987C183.224 156.168 179.876 158.902 174.674 160.255C170.274 161.415 168.282 161.166 167.756 161.056C163.965 160.145 161.862 156.997 161.115 155.92C159.316 153.241 158.735 150.452 158.403 144.46C158.071 138.302 158.431 136.672 158.542 128.195C158.625 120.104 158.32 117.812 158.929 112.206C159.289 108.92 159.732 106.214 160.091 104.391C159.012 103.259 157.933 102.127 156.854 101.022C155.941 101.823 155 102.596 154.059 103.397C153.45 103.922 152.814 104.446 152.205 104.944C151.652 104.999 150.849 104.971 149.991 104.612C147.778 103.673 146.394 100.939 147.086 100.001C147.529 99.3654 148.691 99.8625 150.296 99.8625C153.063 99.8901 154.917 98.4818 158.597 95.8308C161.198 93.9254 164.187 91.7991 168.365 88.8444Z" fill="#9B9797"/>
<path d="M193.158 113.835C186.766 122.644 182.035 132.751 173.955 140.262C173.567 140.621 174.148 141.201 174.536 140.842C182.671 133.276 187.43 123.114 193.878 114.25C194.21 113.835 193.49 113.421 193.158 113.835Z" fill="black"/>
<path d="M169.361 161.691C180.319 160.973 188.178 151.805 194.763 144.018C195.095 143.604 194.514 143.024 194.182 143.438C187.79 151.06 180.042 160.172 169.389 160.89C168.835 160.89 168.835 161.719 169.361 161.691Z" fill="black"/>
<path d="M164.159 83.9015C164.214 86.083 165.653 87.9608 167.756 88.5683C168.282 88.7064 168.503 87.9056 167.978 87.7675C166.234 87.2704 165.044 85.6964 164.989 83.9015C164.961 83.3768 164.131 83.3768 164.159 83.9015Z" fill="black"/>
<path d="M165.017 83.6529C165.293 81.2505 169.583 82.9902 170.745 83.5977C171.879 84.1776 173.014 84.7575 173.263 86.1382C173.456 87.1876 173.124 88.2921 172.848 89.3139C172.709 89.8385 173.512 90.0595 173.65 89.5348C174.038 88.1541 174.453 86.58 173.872 85.2269C173.318 83.8462 171.796 83.2111 170.551 82.6036C169.278 81.9961 167.895 81.5542 166.456 81.7199C165.875 81.8028 165.127 81.9408 164.657 82.3274C164.159 82.714 164.27 82.9902 164.187 83.6805C164.131 84.1776 164.961 84.1776 165.017 83.6529Z" fill="black"/>
<path d="M172.571 89.1482C172.488 91.2469 172.958 93.2903 172.46 95.389C171.99 97.322 171.049 99.1169 170.108 100.857C169.859 101.326 170.579 101.74 170.828 101.271C171.796 99.4483 172.765 97.5981 173.263 95.6099C173.789 93.456 173.318 91.3297 173.401 89.1482C173.429 88.5959 172.599 88.5959 172.571 89.1482Z" fill="black"/>
<path d="M170.108 100.884C169.472 115.437 173.65 129.686 172.986 144.239C172.958 144.763 173.789 144.763 173.816 144.239C174.48 129.686 170.302 115.437 170.938 100.884C170.966 100.359 170.136 100.359 170.108 100.884Z" fill="black"/>
<path d="M156.522 101.188C157.352 102.348 158.237 103.452 159.233 104.474C159.593 104.861 160.174 104.281 159.815 103.894C158.874 102.9 158.016 101.878 157.241 100.774C156.909 100.332 156.19 100.746 156.522 101.188Z" fill="black"/>
<path d="M159.704 104.253C158.127 113.228 157.352 122.341 157.38 131.453C157.407 135.982 157.629 140.538 158.071 145.04C158.431 148.878 158.874 152.91 160.894 156.279C162.72 159.344 165.93 161.663 169.583 161.581C170.108 161.553 170.108 160.725 169.583 160.752C164.463 160.89 161.17 156.334 159.981 151.86C158.652 146.945 158.542 141.588 158.348 136.534C157.933 125.82 158.68 115.05 160.534 104.502C160.589 103.949 159.787 103.729 159.704 104.253Z" fill="black"/>
<path d="M154.474 91.8543C151.873 94.0359 149.355 96.3278 146.975 98.7303C146.588 99.1169 147.197 99.6968 147.556 99.3102C149.964 96.9078 152.454 94.6157 155.055 92.4342C155.47 92.1028 154.889 91.5229 154.474 91.8543Z" fill="black"/>
<path d="M146.726 99.4759C146.311 102.679 148.746 105.385 151.984 105.358C152.509 105.358 152.509 104.529 151.984 104.529C149.189 104.557 147.196 102.21 147.556 99.4759C147.639 98.9512 146.809 98.9512 146.726 99.4759Z" fill="black"/>
<path d="M147.501 99.2827C150.406 99.3655 152.426 101.961 151.818 104.778C151.707 105.303 152.509 105.524 152.62 104.999C153.367 101.602 150.987 98.5647 147.501 98.4542C146.975 98.4542 146.975 99.2827 147.501 99.2827Z" fill="black"/>
<path d="M152.952 104.861C156.107 101.989 159.317 99.1446 162.388 96.1898C163.799 94.8367 165.155 93.456 166.428 91.9648C167.12 91.164 168.863 89.59 168.891 88.4854C168.891 88.3474 168.808 88.1817 168.697 88.1264C168.642 88.0988 168.586 88.0712 168.559 88.0712C168.393 87.9884 168.171 87.9884 168.061 88.1264C168.033 88.1541 168.005 88.1817 167.978 88.2369C167.646 88.6511 168.227 89.231 168.559 88.8168C168.586 88.7892 168.614 88.7616 168.642 88.7063C168.476 88.734 168.31 88.7616 168.144 88.7616C168.088 88.513 168.005 88.513 167.895 88.7892C167.756 88.9825 167.618 89.1758 167.452 89.3691C167.12 89.7833 166.815 90.1975 166.456 90.6117C165.902 91.3021 165.293 91.9648 164.712 92.6276C163.495 93.9531 162.222 95.1957 160.921 96.4108C158.099 99.0617 155.221 101.63 152.371 104.253C151.956 104.64 152.565 105.22 152.952 104.861Z" fill="black"/>
<path d="M153.312 93.4007C153.506 92.0752 153.699 90.7498 153.893 89.4243C154.031 88.4301 154.142 87.3256 154.695 86.4419C155.968 84.3985 157.767 85.862 158.735 87.2427C159.15 87.8226 159.538 88.4578 159.953 89.0377C160.174 89.369 161.253 90.5565 161.115 90.9707C161.253 90.8602 161.392 90.7774 161.503 90.6669C161.447 90.6669 161.42 90.6669 161.364 90.6669C160.838 90.6393 160.838 91.4677 161.364 91.4953C161.42 91.4953 161.447 91.4953 161.503 91.4953C161.696 91.4953 161.862 91.3573 161.89 91.1916C162.084 90.5012 161.613 90.087 161.253 89.5347C160.562 88.513 159.898 87.4636 159.178 86.4695C158.431 85.4478 157.463 84.4537 156.079 84.5917C154.751 84.7298 153.948 85.7516 153.533 86.939C152.841 88.8996 152.786 91.1364 152.482 93.1798C152.426 93.7045 153.229 93.9254 153.312 93.4007Z" fill="black"/>
<path d="M154.612 90.2804C155.36 91.744 156.605 93.2352 158.376 93.3456C159.842 93.4561 161.226 92.6277 161.613 91.1917C161.752 90.667 160.949 90.4461 160.811 90.9708C160.451 92.2963 158.984 92.7934 157.767 92.3791C156.605 91.9649 155.858 90.9432 155.332 89.8938C155.083 89.3968 154.363 89.811 154.612 90.2804Z" fill="black"/>
<path d="M155.636 84.8956C155.775 83.5425 157.324 83.1835 158.376 83.5425C159.483 83.9015 160.34 84.8956 161.115 85.6964C161.724 86.3315 162.914 87.2152 163.08 88.0988C163.301 89.2863 161.807 90.0871 160.811 90.3908C160.313 90.5289 160.506 91.3297 161.032 91.1917C162.25 90.8327 164.021 89.7557 164.214 88.3198C164.297 87.7399 163.938 87.4361 163.55 87.0219C162.775 86.1935 162.028 85.3926 161.226 84.5918C160.147 83.4872 158.763 82.2998 157.103 82.576C155.858 82.7693 154.944 83.5977 154.806 84.868C154.751 85.4203 155.581 85.4203 155.636 84.8956Z" fill="black"/>
<path d="M157.13 82.8521C157.518 82.4103 157.712 81.8304 158.071 81.3886C158.957 80.284 160.34 81.3057 161.253 81.9685C163.024 83.2111 164.906 85.4755 163.301 87.6294C162.997 88.0712 163.716 88.4854 164.021 88.0436C165.736 85.724 164.048 83.0454 162.084 81.5542C161.17 80.8639 159.787 79.6212 158.542 79.9802C157.435 80.284 157.241 81.5542 156.549 82.2998C156.19 82.6588 156.771 83.2387 157.13 82.8521Z" fill="black"/>
<path d="M159.925 80.3392C160.894 79.1517 162.167 77.9091 163.661 79.1517C164.657 79.9526 165.293 81.0848 165.653 82.2722C165.819 82.7692 166.594 82.5759 166.456 82.0513C165.985 80.4496 164.906 78.5995 163.301 77.9367C161.669 77.274 160.313 78.5718 159.344 79.7593C159.012 80.1459 159.593 80.7534 159.925 80.3392Z" fill="black"/>
<path d="M166.041 80.4496C167.756 78.986 169.472 77.5225 171.187 76.0865C171.602 75.7276 170.994 75.1476 170.606 75.5066C168.891 76.9702 167.175 78.4338 165.46 79.8697C165.044 80.2287 165.653 80.8086 166.041 80.4496Z" fill="black"/>
<path d="M172.156 83.9843C173.789 82.7969 175.366 81.5266 176.832 80.1459C177.22 79.7869 176.639 79.207 176.251 79.566C174.812 80.8915 173.318 82.1341 171.741 83.2663C171.298 83.5701 171.713 84.288 172.156 83.9843Z" fill="black"/>
<path d="M184.58 81.9132C193.811 81.9132 201.294 74.4457 201.294 65.2341C201.294 56.0225 193.811 48.5551 184.58 48.5551C175.35 48.5551 167.867 56.0225 167.867 65.2341C167.867 74.4457 175.35 81.9132 184.58 81.9132Z" stroke="black" stroke-width="3" stroke-miterlimit="10"/>
<path d="M174.453 67.2776C180.596 63.3563 186.877 59.656 193.297 56.1766C193.767 55.9281 193.352 55.2101 192.882 55.4586C186.462 58.9104 180.181 62.6108 174.038 66.5596C173.595 66.8634 174.01 67.5813 174.453 67.2776Z" fill="black"/>
<path d="M175.144 74.5125C180.208 70.8122 185.327 67.25 190.557 63.7706C191 63.4668 190.585 62.7488 190.142 63.0526C184.94 66.532 179.793 70.1219 174.729 73.7946C174.287 74.0983 174.702 74.8163 175.144 74.5125Z" fill="black"/>
</g>
<defs>
<clipPath id="clip0_20_517">
<rect width="336" height="304" fill="white" transform="translate(0.5)"/>
</clipPath>
</defs>
</svg>
